# xmcd
#
# Track frame offsets:
#	150
#	15638
#	31262
#	47117
#	61450
#	74132
#	88532
#	101671
#	116956
#	136488
#	147175
#	160237
#	173971
#	186672
#	200902
#	215153
#	227249
#	240889
#
# Disc length: 3473 seconds
#
# Revision: 0
# Processed by: cddbd v1.5.2PL0 Copyright (c) Steve Scherf et al.
# Submitted via: EasyCDDAExtractor 16.0.6.1
#
DISCID=190d8f12
DTITLE=Διάφοροι - Τα 45άρια του Τζουκ Μποξ Cd1
DYEAR=2012
DGENRE=Λαϊκά
TTITLE0=Συννεφιασμένη Κυριακή (Βασίλης Τσιτσάνης and Σωτηρία Μπέλλου)
TTITLE1=Πάρε τα χνάρια μου (Στ.καζαντζίδης)
TTITLE2=Τα λιμάνια (Ρίτα σακελαρίου)
TTITLE3=Ο τραμπαρίφας (Βίκυ Μοσχολιού)
TTITLE4=Να χαρείς τα μάτια σου καλέ (Χρηστάκης)
TTITLE5=Φραγκοσυριανή (Γιάννης Πουλόπουλος)
TTITLE6=Η σκούνα (Μαίρη Λίντα)
TTITLE7=Πως να περάσει η βραδιά (Βαγγέλης Περπινιάδης)
TTITLE8=Τα μαύρα μάτια σου (Μανώλης αγγελόπουλος)
TTITLE9=Σήκω πάνω κάτσε κάτω (Πάνος Γαβαλάς)
TTITLE10=Λίγα ψίχουλα αγάπης σου γυρεύω (Σ.Μπέλλου)
TTITLE11=Το πιτσιρικάκι (Σπύρος Ζαγοραίος)
TTITLE12=Θα σπάσω κούπες (Αλεξάνδρα)
TTITLE13=Η αφιλότιμη (Άγγελος Διονυσίου)Live
TTITLE14=Ρολόϊ καμπολόϊ (Στράτος Κύπριος)
TTITLE15=Μια παλιά ιστορία (Δημήτρης Ψαριανός)
TTITLE16=Μη μου θυμώνεις μάτια μου (Γιάννης Πουλόπουλος)
TTITLE17=Το μονοπάτι (Βίκυ Μοσχολιού)
EXTD=
EXTT0=
EXTT1=
EXTT2=
EXTT3=
EXTT4=
EXTT5=
EXTT6=
EXTT7=
EXTT8=
EXTT9=
EXTT10=
EXTT11=
EXTT12=
EXTT13=
EXTT14=
EXTT15=
EXTT16=
EXTT17=
PLAYORDER=
